<svg width="196" height="69" viewBox="0 0 196 69" fill="none" xmlns="http://www.w3.org/2000/svg">
<path d="M85.7305 30L93.8652 5.96094H101.353L109.504 30H103.428L97.7168 11.9043H97.5176L91.8066 30H85.7305ZM104.092 20.5205V24.8535H91.0596V20.5205H104.092ZM124.329 13.0996C124.274 12.513 124.097 12.0094 123.798 11.5889C123.499 11.1683 123.073 10.8529 122.52 10.6426C121.977 10.4212 121.324 10.3105 120.561 10.3105C119.819 10.3105 119.188 10.4102 118.668 10.6094C118.148 10.8086 117.755 11.0908 117.489 11.4561C117.224 11.8102 117.091 12.2142 117.091 12.668C117.069 13.3763 117.362 13.9408 117.971 14.3613C118.579 14.7708 119.476 15.1084 120.66 15.374L122.752 15.8389C125.154 16.3701 126.974 17.2279 128.214 18.4121C129.453 19.5853 130.079 21.1237 130.09 23.0273C130.09 24.5436 129.714 25.8496 128.961 26.9453C128.208 28.0299 127.113 28.86 125.674 29.4355C124.246 30.0111 122.547 30.2988 120.577 30.2988C118.541 30.3099 116.786 30.0055 115.314 29.3857C113.842 28.766 112.697 27.8473 111.878 26.6299C111.059 25.4124 110.633 23.8962 110.6 22.0811H116.045C116.089 22.8447 116.299 23.4922 116.676 24.0234C117.052 24.5547 117.561 24.9531 118.203 25.2188C118.856 25.4733 119.62 25.6006 120.494 25.6006C121.291 25.6006 121.977 25.4899 122.553 25.2686C123.128 25.0472 123.565 24.7428 123.864 24.3555C124.163 23.9681 124.318 23.5199 124.329 23.0107C124.318 22.557 124.174 22.1641 123.897 21.832C123.632 21.4889 123.217 21.2012 122.652 20.9688C122.088 20.7253 121.346 20.4984 120.428 20.2881L117.904 19.6904C115.757 19.1924 114.108 18.401 112.957 17.3164C111.806 16.2318 111.236 14.8096 111.247 13.0498C111.236 11.5889 111.629 10.2939 112.426 9.16504C113.223 8.03613 114.329 7.16732 115.746 6.55859C117.163 5.9388 118.779 5.62891 120.594 5.62891C122.42 5.62891 124.019 5.9388 125.392 6.55859C126.775 7.17839 127.843 8.05827 128.596 9.19824C129.359 10.3271 129.747 11.6276 129.758 13.0996H124.329ZM146.011 13.0996C145.955 12.513 145.778 12.0094 145.479 11.5889C145.181 11.1683 144.755 10.8529 144.201 10.6426C143.659 10.4212 143.006 10.3105 142.242 10.3105C141.501 10.3105 140.87 10.4102 140.35 10.6094C139.829 10.8086 139.437 11.0908 139.171 11.4561C138.905 11.8102 138.772 12.2142 138.772 12.668C138.75 13.3763 139.044 13.9408 139.652 14.3613C140.261 14.7708 141.158 15.1084 142.342 15.374L144.434 15.8389C146.835 16.3701 148.656 17.2279 149.896 18.4121C151.135 19.5853 151.76 21.1237 151.771 23.0273C151.771 24.5436 151.395 25.8496 150.643 26.9453C149.89 28.0299 148.794 28.86 147.355 29.4355C145.928 30.0111 144.229 30.2988 142.259 30.2988C140.222 30.3099 138.468 30.0055 136.996 29.3857C135.524 28.766 134.379 27.8473 133.56 26.6299C132.741 25.4124 132.314 23.8962 132.281 22.0811H137.727C137.771 22.8447 137.981 23.4922 138.357 24.0234C138.734 24.5547 139.243 24.9531 139.885 25.2188C140.538 25.4733 141.301 25.6006 142.176 25.6006C142.973 25.6006 143.659 25.4899 144.234 25.2686C144.81 25.0472 145.247 24.7428 145.546 24.3555C145.845 23.9681 146 23.5199 146.011 23.0107C146 22.557 145.856 22.1641 145.579 21.832C145.313 21.4889 144.898 21.2012 144.334 20.9688C143.77 20.7253 143.028 20.4984 142.109 20.2881L139.586 19.6904C137.439 19.1924 135.79 18.401 134.639 17.3164C133.488 16.2318 132.918 14.8096 132.929 13.0498C132.918 11.5889 133.311 10.2939 134.107 9.16504C134.904 8.03613 136.011 7.16732 137.428 6.55859C138.844 5.9388 140.46 5.62891 142.275 5.62891C144.102 5.62891 145.701 5.9388 147.073 6.55859C148.457 7.17839 149.525 8.05827 150.277 9.19824C151.041 10.3271 151.428 11.6276 151.439 13.0996H146.011ZM154.693 5.96094H171.345V10.5762H160.338V15.6729H170.481V20.2715H160.338V25.3848H171.345V30H154.693V5.96094ZM174.117 5.96094H194.338V10.5762H187.017V30H181.438V10.5762H174.117V5.96094ZM86.8262 37.9609H96.7705C98.5192 37.9609 100.002 38.2155 101.22 38.7246C102.448 39.2227 103.372 39.931 103.992 40.8496C104.612 41.7682 104.922 42.8363 104.922 44.0537C104.922 44.9613 104.734 45.7747 104.357 46.4941C103.981 47.2025 103.455 47.7946 102.78 48.2705C102.105 48.7464 101.33 49.0729 100.456 49.25V49.4824C101.419 49.5267 102.315 49.7923 103.146 50.2793C103.987 50.7663 104.651 51.4414 105.138 52.3047C105.625 53.168 105.868 54.1641 105.868 55.293C105.857 56.599 105.52 57.7555 104.855 58.7627C104.202 59.7588 103.251 60.5501 102 61.1367C100.749 61.7122 99.2552 62 97.5176 62H86.8262V37.9609ZM96.1729 57.418C97.0251 57.418 97.7279 57.3073 98.2812 57.0859C98.8457 56.8535 99.2607 56.5381 99.5264 56.1396C99.8031 55.7301 99.9414 55.2321 99.9414 54.6455C99.9414 54.0257 99.792 53.4834 99.4932 53.0186C99.2054 52.5426 98.7848 52.1829 98.2314 51.9395C97.6891 51.6849 97.0417 51.5576 96.2891 51.5576H92.4707V57.418H96.1729ZM95.8076 47.8887C96.4606 47.8776 97.0417 47.7614 97.5508 47.54C98.0599 47.3187 98.4528 47.0033 98.7295 46.5938C99.0173 46.1842 99.1611 45.6917 99.1611 45.1162C99.1611 44.585 99.0283 44.1201 98.7627 43.7217C98.4971 43.3122 98.1208 43.0023 97.6338 42.792C97.1468 42.5817 96.5713 42.4766 95.9072 42.4766H92.4707V47.8887H95.8076ZM131.202 49.9805C131.202 52.5592 130.704 54.7783 129.708 56.6377C128.712 58.486 127.351 59.8971 125.624 60.8711C123.897 61.8451 121.944 62.332 119.764 62.332C117.583 62.332 115.63 61.8451 113.903 60.8711C112.177 59.8971 110.815 58.4805 109.819 56.6211C108.834 54.7617 108.342 52.5482 108.342 49.9805C108.342 47.4017 108.834 45.1826 109.819 43.3232C110.815 41.4528 112.177 40.0361 113.903 39.0732C115.63 38.1104 117.583 37.6289 119.764 37.6289C121.944 37.6289 123.897 38.1104 125.624 39.0732C127.351 40.0361 128.712 41.4528 129.708 43.3232C130.704 45.1826 131.202 47.4017 131.202 49.9805ZM125.425 49.9805C125.425 48.3978 125.198 47.0586 124.744 45.9629C124.301 44.8561 123.654 44.0205 122.802 43.4561C121.95 42.8805 120.937 42.5928 119.764 42.5928C118.59 42.5928 117.583 42.8805 116.742 43.4561C115.901 44.0205 115.254 44.8561 114.8 45.9629C114.346 47.0586 114.119 48.3978 114.119 49.9805C114.119 51.5632 114.346 52.9023 114.8 53.998C115.254 55.0827 115.901 55.9128 116.742 56.4883C117.583 57.0638 118.59 57.3571 119.764 57.3682C120.937 57.3571 121.95 57.0638 122.802 56.4883C123.654 55.9128 124.301 55.0827 124.744 53.998C125.198 52.9023 125.425 51.5632 125.425 49.9805ZM143.338 45.6807H143.537L148.053 37.9609H154.395L147.14 49.9805L154.627 62H148.119L143.537 54.2305H143.338L138.739 62H132.298L139.752 49.9805L132.464 37.9609H138.855L143.338 45.6807Z" fill="white"/>
<g clip-path="url(#clip0_576_321)">
<path d="M32.9999 69.0002C32.2916 69.0002 31.5833 68.8077 30.9716 68.4546C29.716 67.7165 28.9755 66.4007 28.9755 64.9886V35.2704L2.06042 20.3472C0.740421 19.6091 -0.0644569 18.197 -6.66743e-05 16.6565C0.0643236 15.1481 0.997982 13.8002 2.38237 13.1905L31.358 0.353243C32.3882 -0.0960597 33.5794 -0.0960597 34.6419 0.353243L63.6175 13.1905C65.0663 13.8323 65.9999 15.2765 65.9999 16.8491V48.9421C65.9999 50.3863 65.1951 51.7342 63.9395 52.4402L34.9638 68.4867C34.3521 68.8398 33.676 69.0002 32.9999 69.0002ZM13.039 17.2342L34.9638 29.3653C36.2516 30.0714 37.0243 31.4193 37.0243 32.8635V58.1528L57.9512 46.5672V19.4486L32.9999 8.40859L13.039 17.2342Z" fill="#007AFF"/>
<path d="M31.0361 68.4865L2.06049 52.44C0.804878 51.734 0 50.3861 0 48.9419V16.8488H8.04878V46.567L34.9639 61.4581L31.0361 68.4865Z" fill="#007AFF"/>
<path d="M33 51.413C32.3883 51.413 31.7766 51.2847 31.1971 50.9958L15.0996 42.9084C13.1035 41.9135 12.3308 39.5065 13.3288 37.5168C14.3269 35.527 16.7415 34.7568 18.7376 35.7516L34.8352 43.8391C36.8313 44.834 37.604 47.2409 36.6059 49.2307C35.8976 50.6107 34.481 51.413 33 51.413Z" fill="#007AFF"/>
</g>
<defs>
<clipPath id="clip0_576_321">
<rect width="66" height="69" fill="white"/>
</clipPath>
</defs>
</svg>
