<svg width="18" height="18" viewBox="0 0 18 18" fill="none" xmlns="http://www.w3.org/2000/svg">
<path d="M7.875 13.5H10.125V7.875H7.875V13.5ZM9 4.5C8.379 4.5 7.875 5.004 7.875 5.625C7.875 6.246 8.379 6.75 9 6.75C9.621 6.75 10.125 6.246 10.125 5.625C10.125 5.004 9.621 4.5 9 4.5ZM9 0C4.02975 0 0 4.02975 0 9C0 13.9703 4.02975 18 9 18C13.9703 18 18 13.9703 18 9C18 4.02975 13.9703 0 9 0ZM13.7734 13.7734C12.4976 15.048 10.8034 15.75 9 15.75C7.19662 15.75 5.50238 15.048 4.22662 13.7734C2.952 12.4976 2.25 10.8034 2.25 9C2.25 7.19662 2.952 5.50238 4.22662 4.22662C5.50238 2.952 7.19662 2.25 9 2.25C10.8034 2.25 12.4976 2.952 13.7734 4.22662C15.048 5.50238 15.75 7.19662 15.75 9C15.75 10.8034 15.048 12.4976 13.7734 13.7734Z" fill="#FF367A"/>
</svg>
