<svg width="17" height="20" viewBox="0 0 17 20" fill="none" xmlns="http://www.w3.org/2000/svg">
<g clip-path="url(#clip0_17_431)">
<path d="M14.75 17.6H13.94V15.6H14.75C14.89 15.6 15 15.49 15 15.35V2.25C15 2.11 14.89 2 14.75 2H4.5C4.36 2 4.25 2.11 4.25 2.25V3.06H2.25V2.25C2.25 1.01 3.26 0 4.5 0H14.75C15.99 0 17 1.01 17 2.25V15.35C17 16.59 15.99 17.6 14.75 17.6Z" fill="#838A9A"/>
<path d="M11.5 19.66H1.25C0.56 19.66 0 19.1 0 18.41V5.31C0 4.62 0.56 4.06 1.25 4.06H11.5C12.19 4.06 12.75 4.62 12.75 5.31V18.41C12.75 19.1 12.19 19.66 11.5 19.66Z" fill="#838A9A"/>
</g>
<defs>
<clipPath id="clip0_17_431">
<rect width="17" height="19.66" fill="white"/>
</clipPath>
</defs>
</svg>
