<svg width="21" height="20" viewBox="0 0 21 20" fill="none" xmlns="http://www.w3.org/2000/svg">
<path d="M9.75 15H12.25V8.75H9.75V15ZM11 5C10.31 5 9.75 5.56 9.75 6.25C9.75 6.94 10.31 7.5 11 7.5C11.69 7.5 12.25 6.94 12.25 6.25C12.25 5.56 11.69 5 11 5ZM11 0C5.4775 0 1 4.4775 1 10C1 15.5225 5.4775 20 11 20C16.5225 20 21 15.5225 21 10C21 4.4775 16.5225 0 11 0ZM16.3038 15.3038C14.8863 16.72 13.0037 17.5 11 17.5C8.99625 17.5 7.11375 16.72 5.69625 15.3038C4.28 13.8863 3.5 12.0037 3.5 10C3.5 7.99625 4.28 6.11375 5.69625 4.69625C7.11375 3.28 8.99625 2.5 11 2.5C13.0037 2.5 14.8863 3.28 16.3038 4.69625C17.72 6.11375 18.5 7.99625 18.5 10C18.5 12.0037 17.72 13.8863 16.3038 15.3038Z" fill="black"/>
</svg>
